<?xml version="1.0" encoding="UTF-8"?>
<svg xmlns="http://www.w3.org/2000/svg" xmlns:xlink="http://www.w3.org/1999/xlink" width="250px" height="83px" viewBox="0 0 248 83" version="1.1">
<g id="surface1">
<path style=" stroke:none;fill-rule:nonzero;fill:rgb(100%,100%,100%);fill-opacity:1;" d="M 31.988281 17.691406 C 14.351562 17.691406 0.00390625 32.316406 0.00390625 49.988281 C 0.00390625 67.664062 14.351562 81.796875 31.988281 81.796875 C 39.3125 81.796875 46.070312 79.359375 51.46875 75.242188 C 54.21875 79.203125 58.796875 81.796875 63.976562 81.796875 L 63.976562 49.988281 C 63.976562 32.316406 49.628906 17.691406 31.988281 17.691406 Z M 32.042969 66.53125 C 32.042969 66.53125 32.039062 66.53125 32.035156 66.53125 C 32.019531 66.53125 32.003906 66.53125 31.988281 66.53125 C 22.738281 66.53125 15.234375 59.261719 15.234375 49.988281 C 15.234375 40.71875 22.734375 32.953125 31.988281 32.953125 C 41.242188 32.953125 48.746094 40.71875 48.746094 49.988281 C 48.746094 59.261719 41.273438 66.503906 32.042969 66.53125 Z M 32.042969 66.53125 "/>
<path style=" stroke:none;fill-rule:nonzero;fill:rgb(100%,100%,100%);fill-opacity:1;" d="M 185.890625 39.277344 L 185.890625 0 C 179.46875 0 174.261719 5.214844 174.261719 11.652344 L 174.265625 39.277344 "/>
<path style=" stroke:none;fill-rule:nonzero;fill:rgb(100%,100%,100%);fill-opacity:1;" d="M 115.34375 39.277344 L 115.339844 0 C 108.921875 0 103.714844 5.214844 103.714844 11.652344 L 103.71875 39.277344 "/>
<path style=" stroke:none;fill-rule:nonzero;fill:rgb(100%,100%,100%);fill-opacity:1;" d="M 216.011719 17.9375 C 198.371094 17.9375 184.023438 32.5625 184.023438 50.234375 C 184.023438 67.910156 198.371094 82.042969 216.011719 82.042969 C 223.332031 82.042969 230.089844 79.605469 235.488281 75.488281 C 238.238281 79.449219 242.816406 82.042969 247.996094 82.042969 L 247.996094 50.234375 C 247.996094 32.5625 233.648438 17.9375 216.011719 17.9375 Z M 216.011719 66.777344 C 206.757812 66.777344 199.253906 59.507812 199.253906 50.234375 C 199.253906 40.964844 206.757812 33.199219 216.011719 33.199219 C 225.265625 33.199219 232.765625 40.964844 232.765625 50.234375 C 232.765625 59.507812 225.261719 66.777344 216.011719 66.777344 Z M 216.011719 66.777344 "/>
<path style=" stroke:none;fill-rule:nonzero;fill:rgb(7.058824%,9.411765%,20%);fill-opacity:1;" d="M 89.839844 83 C 85.363281 83 81.015625 82.121094 76.917969 80.382812 C 74.949219 79.550781 73.050781 78.515625 71.277344 77.316406 C 69.523438 76.128906 67.871094 74.761719 66.371094 73.261719 C 64.871094 71.757812 63.511719 70.105469 62.324219 68.34375 C 61.125 66.566406 60.097656 64.664062 59.265625 62.691406 C 57.53125 58.585938 56.652344 54.230469 56.652344 49.746094 C 56.652344 45.261719 57.53125 40.90625 59.265625 36.800781 C 60.097656 34.828125 61.125 32.925781 62.324219 31.148438 C 63.511719 29.386719 64.871094 27.734375 66.371094 26.230469 C 67.871094 24.730469 69.523438 23.363281 71.277344 22.175781 C 73.050781 20.972656 74.949219 19.941406 76.917969 19.109375 C 81.015625 17.371094 85.363281 16.492188 89.839844 16.492188 C 94.316406 16.492188 98.660156 17.371094 102.757812 19.109375 C 104.726562 19.941406 106.625 20.972656 108.398438 22.175781 C 110.15625 23.363281 111.804688 24.726562 113.304688 26.230469 L 125.421875 38.375 L 147.925781 60.925781 C 150.90625 63.914062 154.871094 65.558594 159.085938 65.558594 C 167.789062 65.558594 174.871094 58.464844 174.871094 49.742188 C 174.871094 41.023438 167.789062 33.929688 159.085938 33.929688 C 154.953125 33.929688 151.0625 35.507812 148.105469 38.382812 L 147.929688 38.5625 L 138.3125 48.199219 L 126.007812 35.867188 L 134.96875 26.882812 C 134.96875 26.882812 135.621094 26.230469 135.621094 26.230469 C 137.121094 24.726562 138.769531 23.363281 140.527344 22.171875 C 142.300781 20.972656 144.199219 19.941406 146.167969 19.105469 C 150.265625 17.371094 154.609375 16.488281 159.085938 16.488281 C 163.5625 16.488281 167.910156 17.371094 172.007812 19.105469 C 173.976562 19.941406 175.875 20.972656 177.648438 22.171875 C 179.402344 23.363281 181.054688 24.726562 182.554688 26.230469 C 184.050781 27.730469 185.414062 29.386719 186.601562 31.144531 C 187.800781 32.921875 188.828125 34.824219 189.660156 36.796875 C 191.394531 40.902344 192.273438 45.257812 192.273438 49.742188 C 192.273438 54.230469 191.394531 58.585938 189.660156 62.691406 C 188.828125 64.664062 187.800781 66.566406 186.601562 68.34375 C 185.414062 70.101562 184.050781 71.753906 182.554688 73.257812 C 181.054688 74.761719 179.402344 76.125 177.648438 77.3125 C 175.871094 78.515625 173.976562 79.546875 172.007812 80.382812 C 167.910156 82.117188 163.5625 82.996094 159.085938 82.996094 C 154.609375 82.996094 150.261719 82.117188 146.167969 80.382812 C 144.199219 79.546875 142.300781 78.515625 140.527344 77.3125 C 139.085938 76.339844 137.714844 75.246094 136.441406 74.054688 C 135.777344 74.496094 134.8125 75.074219 133.707031 75.578125 C 132.445312 76.152344 131.253906 76.507812 130.15625 76.640625 C 128.664062 76.820312 127.34375 76.582031 126.230469 75.9375 C 124.617188 74.996094 123.527344 73.242188 122.996094 70.722656 C 122.4375 68.078125 122.480469 64.457031 123.117188 59.96875 C 123.71875 55.761719 123.820312 52.492188 123.425781 50.25 C 123.234375 49.15625 122.820312 47.765625 121.941406 47.324219 C 121.09375 46.898438 119.648438 47.296875 117.871094 48.441406 C 116.292969 49.460938 115.046875 50.699219 115.03125 50.710938 L 114.074219 51.667969 L 113.117188 50.710938 L 100.804688 38.371094 C 97.847656 35.507812 93.953125 33.929688 89.839844 33.929688 C 81.136719 33.929688 74.054688 41.027344 74.054688 49.746094 C 74.054688 58.46875 81.136719 65.5625 89.839844 65.5625 C 94.054688 65.5625 98.019531 63.917969 101 60.929688 L 110.613281 51.296875 L 121.957031 62.667969 L 120.039062 64.589844 L 110.613281 55.140625 L 102.917969 62.851562 C 99.425781 66.351562 94.78125 68.28125 89.839844 68.28125 C 79.640625 68.28125 71.34375 59.964844 71.34375 49.746094 C 71.34375 39.527344 79.640625 31.214844 89.839844 31.214844 C 94.667969 31.214844 99.234375 33.066406 102.699219 36.425781 L 102.714844 36.441406 L 114.121094 47.871094 C 114.695312 47.378906 115.476562 46.757812 116.363281 46.183594 C 119.070312 44.425781 121.355469 43.992188 123.15625 44.894531 C 124.667969 45.652344 125.65625 47.292969 126.097656 49.773438 C 126.542969 52.296875 126.445312 55.859375 125.804688 60.351562 C 124.410156 70.144531 126.324219 72.847656 127.589844 73.585938 C 129.007812 74.410156 131.0625 73.789062 132.539062 73.125 C 134.332031 72.320312 135.734375 71.234375 135.75 71.226562 L 136.691406 70.492188 L 137.539062 71.335938 C 138.917969 72.71875 140.433594 73.96875 142.046875 75.0625 C 143.675781 76.164062 145.417969 77.113281 147.222656 77.878906 C 150.984375 79.472656 154.976562 80.28125 159.085938 80.28125 C 163.199219 80.28125 167.191406 79.472656 170.953125 77.878906 C 172.757812 77.113281 174.5 76.164062 176.128906 75.0625 C 177.742188 73.96875 179.257812 72.71875 180.636719 71.335938 C 182.011719 69.957031 183.265625 68.4375 184.351562 66.820312 C 185.453125 65.191406 186.398438 63.445312 187.164062 61.632812 C 188.753906 57.863281 189.5625 53.863281 189.5625 49.746094 C 189.5625 45.625 188.753906 41.625 187.164062 37.855469 C 186.398438 36.046875 185.453125 34.300781 184.355469 32.667969 C 183.265625 31.050781 182.011719 29.53125 180.636719 28.152344 C 179.257812 26.773438 177.742188 25.519531 176.128906 24.425781 C 174.5 23.324219 172.757812 22.375 170.953125 21.609375 C 167.191406 20.015625 163.199219 19.207031 159.089844 19.207031 C 154.976562 19.207031 150.984375 20.015625 147.226562 21.609375 C 145.417969 22.375 143.675781 23.324219 142.046875 24.425781 C 140.519531 25.460938 139.078125 26.640625 137.757812 27.9375 L 137.539062 28.152344 L 129.84375 35.867188 L 138.3125 44.355469 L 145.054688 37.601562 C 145.054688 37.601562 146.011719 36.636719 146.011719 36.636719 C 149.503906 33.136719 154.148438 31.210938 159.085938 31.210938 C 169.285156 31.210938 177.582031 39.523438 177.582031 49.742188 C 177.582031 59.964844 169.285156 68.277344 159.085938 68.277344 C 154.148438 68.277344 149.503906 66.347656 146.007812 62.847656 L 123.503906 40.296875 L 111.386719 28.15625 C 110.011719 26.773438 108.496094 25.519531 106.882812 24.429688 C 105.253906 23.328125 103.511719 22.378906 101.703125 21.613281 C 97.941406 20.019531 93.949219 19.210938 89.839844 19.210938 C 85.730469 19.210938 81.738281 20.019531 77.976562 21.613281 C 76.167969 22.378906 74.425781 23.328125 72.796875 24.429688 C 71.183594 25.519531 69.667969 26.773438 68.292969 28.15625 C 66.914062 29.535156 65.664062 31.054688 64.574219 32.667969 C 63.472656 34.300781 62.527344 36.046875 61.765625 37.859375 C 60.171875 41.628906 59.367188 45.628906 59.367188 49.746094 C 59.367188 53.867188 60.171875 57.867188 61.765625 61.636719 C 62.527344 63.445312 63.472656 65.191406 64.574219 66.824219 C 65.664062 68.441406 66.914062 69.960938 68.292969 71.339844 C 69.671875 72.71875 71.1875 73.972656 72.796875 75.0625 C 74.425781 76.167969 76.171875 77.117188 77.976562 77.882812 C 81.738281 79.476562 85.730469 80.285156 89.839844 80.285156 C 93.953125 80.285156 97.941406 79.476562 101.703125 77.882812 C 103.511719 77.117188 105.253906 76.167969 106.882812 75.0625 C 108.496094 73.972656 110.011719 72.71875 111.386719 71.339844 L 113.304688 73.261719 C 111.808594 74.765625 110.15625 76.128906 108.402344 77.316406 C 106.625 78.519531 104.730469 79.550781 102.761719 80.382812 C 98.664062 82.121094 94.316406 83 89.839844 83 Z M 89.839844 83 "/>
<path style=" stroke:none;fill-rule:nonzero;fill:rgb(100%,100%,100%);fill-opacity:1;" d="M 112.34375 72.300781 C 110.90625 73.742188 109.324219 75.050781 107.640625 76.191406 C 105.9375 77.34375 104.117188 78.332031 102.230469 79.132812 C 98.300781 80.796875 94.132812 81.640625 89.839844 81.640625 C 85.542969 81.640625 81.375 80.796875 77.445312 79.132812 C 75.558594 78.332031 73.738281 77.34375 72.035156 76.191406 C 70.351562 75.050781 68.769531 73.742188 67.332031 72.300781 C 65.890625 70.859375 64.585938 69.269531 63.449219 67.582031 C 62.296875 65.878906 61.3125 64.054688 60.511719 62.164062 C 58.851562 58.226562 58.007812 54.046875 58.007812 49.746094 C 58.007812 45.445312 58.851562 41.265625 60.511719 37.328125 C 61.3125 35.4375 62.300781 33.613281 63.449219 31.90625 C 64.585938 30.21875 65.890625 28.632812 67.332031 27.191406 C 68.769531 25.75 70.351562 24.441406 72.035156 23.300781 C 73.738281 22.148438 75.558594 21.160156 77.445312 20.359375 C 81.375 18.695312 85.542969 17.851562 89.839844 17.851562 C 94.132812 17.851562 98.300781 18.695312 102.230469 20.359375 C 104.117188 21.160156 107.640625 23.300781 107.640625 23.300781 C 107.640625 23.300781 110.90625 25.75 112.34375 27.191406 L 124.460938 39.335938 L 134.851562 49.746094 L 146.96875 61.886719 C 150.203125 65.132812 154.507812 66.917969 159.085938 66.917969 C 168.535156 66.917969 176.226562 59.210938 176.226562 49.742188 C 176.226562 40.273438 168.535156 32.570312 159.085938 32.570312 C 154.507812 32.570312 150.203125 34.355469 146.96875 37.597656 L 146.96875 37.601562 L 138.3125 46.277344 L 127.925781 35.867188 L 136.582031 27.191406 L 136.578125 27.191406 C 138.019531 25.746094 139.601562 24.4375 141.285156 23.300781 C 142.988281 22.148438 144.808594 21.15625 146.695312 20.355469 C 150.625 18.691406 154.792969 17.847656 159.085938 17.847656 C 163.378906 17.847656 167.550781 18.691406 171.476562 20.355469 C 173.367188 21.15625 175.1875 22.148438 176.886719 23.300781 C 178.570312 24.441406 180.15625 25.75 181.59375 27.191406 C 183.03125 28.632812 184.339844 30.21875 185.476562 31.90625 C 186.625 33.609375 187.613281 35.433594 188.410156 37.324219 C 190.074219 41.261719 190.914062 45.441406 190.914062 49.742188 C 190.914062 54.046875 190.074219 58.222656 188.410156 62.160156 C 187.613281 64.050781 186.625 65.875 185.476562 67.582031 C 184.339844 69.269531 183.03125 70.855469 181.59375 72.296875 C 180.15625 73.738281 178.570312 75.046875 176.886719 76.1875 C 175.1875 77.339844 173.363281 78.328125 171.476562 79.128906 C 167.550781 80.792969 163.378906 81.640625 159.085938 81.640625 C 154.792969 81.640625 150.625 80.796875 146.695312 79.128906 C 144.804688 78.328125 142.988281 77.339844 141.285156 76.1875 C 139.601562 75.046875 138.019531 73.738281 136.578125 72.296875 C 136.578125 72.296875 120.996094 84.453125 124.460938 60.160156 C 127.925781 35.867188 114.074219 49.75 114.074219 49.75 L 101.753906 37.402344 C 98.542969 34.285156 94.320312 32.570312 89.839844 32.570312 C 80.386719 32.570312 72.699219 40.277344 72.699219 49.746094 C 72.699219 59.214844 80.386719 66.921875 89.839844 66.921875 C 94.417969 66.921875 98.722656 65.132812 101.957031 61.890625 L 110.613281 53.21875 L 121 63.628906 "/>
</g>
</svg>
